<?xml version="1.0" encoding="UTF-8"?>
<svg id="Camada_2" data-name="Camada 2" xmlns="http://www.w3.org/2000/svg" viewBox="0 0 241.84 81.85">
  <defs>
    <style>
      .cls-1 {
        fill: #ffab00;
      }

      .cls-2 {
        fill: #213069;
      }

      .cls-3 {
        fill: #ed1c24;
      }
    </style>
  </defs>
  <g id="Camada_1-2" data-name="Camada 1">
    <g>
      <path class="cls-2" d="M49.77,7.85c0-3.03,1.57-4.99,4.37-5.58,1.42-.3,2.59.21,3.3,1.45,1.96,3.44-.22,7.91-4.14,8.47-1.5.21-2.48-.34-3.1-1.75-.39-.88-.47-1.79-.43-2.59"/>
      <g>
        <path class="cls-1" d="M99.95,25.28c1,1.03,2.26,1.83,3.76,2.42,1.5.59,3.23.87,5.21.87,1.16,0,2.33-.11,3.51-.33,1.18-.22,2.2-.54,3.05-.96l-.82-4.05c-.67.28-1.44.5-2.3.7-.86.19-1.72.29-2.57.29-2.29,0-4.1-.6-5.41-1.8-1.32-1.19-1.99-3-1.99-5.43s.66-4.24,1.99-5.44c1.31-1.19,3.12-1.79,5.41-1.79.85,0,1.71.1,2.57.29s1.62.42,2.3.7l.82-4.05c-.85-.42-1.87-.74-3.05-.96-1.18-.22-2.35-.33-3.51-.33-1.98,0-3.71.29-5.21.87-1.5.57-2.76,1.39-3.76,2.42-1,1.03-1.78,2.25-2.29,3.67-.52,1.41-.77,2.96-.77,4.64s.25,3.22.77,4.64c.51,1.41,1.28,2.64,2.29,3.67"/>
        <path class="cls-1" d="M128.42,28.57c2.98,0,5.31-.75,6.98-2.25,1.67-1.5,2.51-3.58,2.51-6.22V5.78h-5.52v14.49c0,1.28-.33,2.25-1,2.93-.67.67-1.66,1-2.96,1s-2.29-.33-2.96-1c-.67-.67-1-1.65-1-2.93V5.78h-5.51v14.32c0,2.64.83,4.71,2.51,6.22,1.67,1.5,3.99,2.25,6.97,2.25"/>
        <polygon class="cls-1" points="155.95 23.8 147.72 23.8 147.72 5.78 142.21 5.78 142.21 28.17 155.95 28.17 155.95 23.8"/>
        <polygon class="cls-1" points="161.53 28.17 167.05 28.17 167.05 10.15 173.06 10.15 173.06 5.78 155.51 5.78 155.51 10.15 161.53 10.15 161.53 28.17"/>
        <path class="cls-1" d="M185.13,28.57c2.98,0,5.3-.75,6.98-2.25,1.67-1.5,2.49-3.58,2.49-6.22V5.78h-5.51v14.49c0,1.28-.33,2.25-1,2.93-.67.67-1.66,1-2.96,1s-2.29-.33-2.96-1c-.67-.67-1-1.65-1-2.93V5.78h-5.52v14.32c0,2.64.84,4.71,2.51,6.22s4,2.25,6.98,2.25"/>
        <path class="cls-1" d="M204.43,10.01h1.58c1.41,0,2.51.24,3.29.73.78.47,1.18,1.23,1.18,2.23,0,1.06-.42,1.88-1.24,2.45-.84.59-1.99.87-3.47.87h-1.35v-6.28ZM204.43,20.4h1l6.15,7.76h6.8l-7.36-8.8c1.5-.59,2.67-1.44,3.51-2.56.84-1.12,1.26-2.43,1.26-3.93,0-1.21-.24-2.26-.74-3.15-.5-.88-1.18-1.61-2.05-2.2-.87-.59-1.9-1.02-3.09-1.31-1.18-.29-2.47-.43-3.86-.43h-7.13v22.38h5.52v-7.76Z"/>
        <path class="cls-1" d="M230.48,10.02l2.85,9.44h-5.74l2.89-9.44ZM226.17,23.83h8.57l1.41,4.34h5.69l-8.34-22.39h-6.05l-8.34,22.39h5.67l1.38-4.34Z"/>
        <path class="cls-2" d="M109.02,62.48c-.36.64-1.35.92-2.05,1.36-.33-.68-.84-1.35-.95-2.06-.17-1.09-.11-2.23-.07-3.33.15-3.64.55-7.29.46-10.92-.1-3.78-2.91-6.35-6.44-6.34-.09.25-.25.52-.27.79-.23,6.24-.68,12.48-.55,18.7.06,2.32,1.19,4.77,2.36,6.87,1.88,3.32,5.54,3.96,8.65,1.73,1.25-.89,2.45-2.02,3.27-3.31,2.04-3.18,3.95-6.47,5.72-9.82,1.58-3,2.89-6.14,4.38-9.34,4.41,3.84,9.17,5.26,14.88,3.53-.3,1.34-.62,2.32-.74,3.33-.56,4.63-1.26,9.26-1.55,13.92-.2,3.33,1.81,6.54,4.29,7.19,3.18.84,5.88-.29,7.95-2.79,3.47-4.2,6.87-8.42,10.3-12.64.44-.54.88-1.08,1.36-1.67.74,2.91,1.15,5.74,2.2,8.29,2.18,5.26,7.12,6.14,11.05,2.03,1.68-1.76,3.17-3.79,4.34-5.92,2.24-4.11,4.18-8.38,6.25-12.58.41-.84.82-1.68,1.09-2.25,2.51,1.23,4.67,2.71,7.04,3.32,2.34.6,4.91.32,7.24.43-.97,3.27-2.15,6.71-3.01,10.23-1.4,5.84,3.12,10.41,8.8,8.91,1.55-.41,3.01-1.24,4.44-2.01.97-.52,1.81-1.26,2.79-1.97.36.86.63,1.55.95,2.21,1.86,3.88,5.45,5.42,9.46,3.86,1.93-.74,3.83-1.7,5.53-2.87,6.22-4.27,10.17-10.35,13.13-17.14.28-.63.23-1.39.33-2.1-.18-.13-.35-.26-.53-.4-1.1.88-2.35,1.66-3.31,2.68-2.3,2.44-4.34,5.12-6.69,7.5-2.08,2.12-4.29,4.15-6.71,5.83-1.03.71-3.09.95-4.04.38-.74-.45-.56-2.51-.67-3.86-.04-.47.23-1,.44-1.48.87-1.89,1.8-3.75,2.64-5.66,1.1-2.48.53-4.68-1.47-5.86-1.95-1.17-3.65-.59-5.53,1.68-3.41,4.13-6.86,8.24-10.38,12.28-.7.81-1.79,1.26-2.7,1.88-.21-.15-.43-.32-.65-.47.24-1.26.28-2.62.76-3.78,2.53-6.11,5.91-11.68,10.65-16.34.89-.87,1.98-1.6,3.08-2.16,1.79-.92,3.18-.25,4.04,1.49.36.74.64,1.52,1,2.4,2.82-2.45,2.82-5.79.19-7.87-2.11-1.68-4.54-2.1-7.18-1.57-5.05,1.03-8.76,4.03-11.55,8.16-1.06,1.55-2.33,2.19-4.03,2.29-1.26.07-2.54.13-3.79.01-5.56-.54-8.45-3.44-8.73-8.35-.07-1.08-.68-2.58-1.51-3.05-1.46-.81-2.94.08-3.79,1.46-1.13,1.83-2.29,3.69-3.06,5.68-1.91,4.99-3.57,10.09-5.43,15.09-.65,1.73-1.56,3.37-2.51,4.96-.27.44-1.12.76-1.67.72-.32-.03-.77-.86-.83-1.37-.15-1.4-.23-2.82-.17-4.22.15-3.27.54-6.53.6-9.79.06-3.4-1.93-6.13-4.78-7.11-1.37-.47-2.12-.22-2.22,1.38-.15,2.59-.33,5.2-.62,7.78-.09.83-.38,1.81-.92,2.4-4.91,5.29-9.89,10.52-14.91,15.73-.53.56-1.32.88-2.01,1.31-.24-1.36-.07-2.36.2-3.32,1.49-5.3,3.01-10.58,4.49-15.88.7-2.5.44-4.88-1.08-7.03-2.04-2.9-4.42-2.84-5.49.45-.93,2.87-2.75,3.39-5.2,3.21-1.62-.11-3.29-.26-4.84-.71-3.84-1.1-5.74-3.56-5.81-7.47-.03-1.51-.01-2.94-1.73-3.4-1.77-.46-3.07.46-3.91,1.91-1.09,1.87-2.21,3.74-2.97,5.73-1.76,4.58-3.26,9.25-4.96,13.85-.66,1.81-1.45,3.6-2.4,5.27"/>
        <path class="cls-2" d="M144.75,34.12c-.3,1.61.11,3.36.23,5.05.43.08.87.15,1.3.23.78-1.42,1.7-2.8,2.33-4.31.52-1.25.11-2.67-1.31-2.73-.86-.04-2.41.99-2.55,1.76"/>
      </g>
      <path class="cls-3" d="M63.04,36.49c-.02,5.55-1.31,9.77-4.73,13.19-.37.37-.7.79-.97,1.24-1.21,1.96-.83,3.63,1.12,4.87,1.48.93,2.92,1.9,4.04,3.27,3.59,4.35,3.47,12.36-.23,16.61-.67.77-1.44,1.42-2.4,1.82-1.35.55-2.04.11-2.06-1.32-.02-1.04.25-2.01.61-2.96,1.08-2.83.77-5.56-.55-8.22-.65-1.33-1.61-2.31-3-2.86-2.18-.86-3.56-.54-5.09,1.25-2.49,2.91-3.64,6.46-4.73,10.03-.46,1.51-1.04,2.98-1.78,4.37-.6,1.12-1.36,2.12-2.36,2.9-1.11.87-2.32,1.6-3.79.86-1.23-.62-2.01-2.54-1.76-4.11.19-1.27.77-2.38,1.44-3.44,1.91-3.03,4.43-5.57,6.71-8.3,3.04-3.63,2.9-5.61-.73-8.67-.74-.62-1.57-1.14-2.38-1.68-4.45-2.97-6.56-9.65-4.57-14.42.38-.92.94-1.7,1.69-2.34,1.22-1.04,2.49-.67,2.82.91.49,2.37.84,4.78,1.27,7.16.2,1.04.41,2.06.7,3.08.7,2.41,2.83,3.38,5.18,2.42,1.79-.73,3.09-2.05,4.19-3.59,2.57-3.56,3.72-7.68,4.67-11.89.28-1.27.62-2.51.98-3.76.22-.73.57-1.43,1.09-2.02,1.22-1.38,3-1.11,3.65.6.72,1.87.98,3.83.96,5"/>
      <path class="cls-2" d="M65.62,36.95c.14-2.14.44-4.27-.04-6.4-.76-3.41-2.77-5.7-6.11-6.78-1.79-.58-2.66-.04-3.09,1.79-.31,1.32-.17,2.66-.17,3.99,0,1.51-.17,2.99-.59,4.44-.43,1.45-1.25,2.08-2.51,2-1.2-.08-1.85-.77-2.18-2.22-.38-1.75-.02-3.46.18-5.19.24-2.08.85-4.13.36-6.25-.22-.96-.43-1.97-1.51-2.31-1.13-.36-1.92.3-2.63,1.09-1.04,1.14-2.07,2.28-3.14,3.39-1.31,1.36-2.98,1.74-4.8,1.52-1.16-.14-1.79-.9-1.79-2.07,0-1.56.75-2.81,1.77-3.89,3.64-3.83,7.79-6.69,13.29-7.05,1.22-.08,2.33-.65,3.41-1.22,5.2-2.73,10.41-5.43,15.61-8.17,2.5-1.31,4.94-1.39,7.38.12,1.8,1.11,2.35,2.78,2.18,4.79-.16,1.79-1.12,2.98-2.7,3.74-1.46.71-3.03.85-4.62.83-3.7-.05-7.36.23-10.98,1.03-1.02.22-1.98.51-2.16,1.77-.17,1.25.5,1.97,1.54,2.47,1.35.64,2.69,1.32,4.06,1.91,3.4,1.48,4.89,4.19,5.11,7.75.22,3.6-.37,7.09-1.48,10.51-.53,1.64-1.25,2.29-2.37,2.14-1.22-.17-1.97-1.16-2.06-2.76-.02-.32,0-.64,0-.97"/>
      <path class="cls-1" d="M32.84,44.44c-.05,1.54.21,3.5-.48,5.38-.34.93-.76,1.78-1.7,2.27-1.66.86-3.27,0-3.43-1.86-.12-1.56.29-3.05.6-4.56.64-3.05,1.19-6.12,1.09-9.25-.05-1.75-.64-2.53-2.36-2.86-3.28-.62-6.53-.44-9.74.45-2.65.74-5.3,1.47-8.05,1.8-2.06.25-4.05.05-6-.55C1.06,34.75-.03,33.33,0,31.83c.04-1.73,1.12-2.95,3.02-3.47,2.17-.59,4.35-.33,6.52-.12,5.72.53,11.22-.3,16.51-2.54,1.63-.69,2.76-1.95,3.56-3.51,2.46-4.8,4.5-9.77,6.24-14.88.88-2.57,2.18-4.86,4.5-6.45,2.42-1.66,4.63-.85,5.36,2,.68,2.67-.06,5.03-1.48,7.26-1.6,2.51-3.7,4.6-5.76,6.71-2.11,2.15-3.76,4.55-4.31,7.6-.48,2.7.6,3.98,3.32,3.72,1.89-.18,3.7-.84,5.64-.76,2.93.12,4.47,1.32,5.12,4.19.49,2.12.51,4.25-.03,6.37-.48,1.89-1.83,2.23-3.22.89-.85-.83-1.27-1.88-1.62-2.96-1.56-4.82-5.66-4.24-8.07-1.64-1.79,1.92-2.33,4.2-2.47,6.66-.06,1.05-.01,2.11-.01,3.55"/>
      <path class="cls-1" d="M19.42,18.96c-.01-2.27.81-3.58,2.51-4.04,1.84-.5,4.36.45,5.29,2.1,1.1,1.93,1.27,3.98.34,6.04-.56,1.23-1.6,1.95-2.89,1.81-3.21-.34-5.03-1.8-5.25-4.94-.02-.33,0-.64,0-.97"/>
      <path class="cls-3" d="M47.92,41.46c2.12,0,3.12.96,3.19,3.08.09,2.69-1.33,4.92-3.65,5.7-1.86.63-3.43-.15-4.02-2.02-1.15-3.53.99-6.76,4.48-6.76"/>
    </g>
  </g>
</svg>